<svg fill="none" height="24" viewBox="0 0 24 24" width="24" xmlns="http://www.w3.org/2000/svg" xmlns:xlink="http://www.w3.org/1999/xlink"><linearGradient id="a" gradientUnits="userSpaceOnUse" x1="1.20148" x2="11.4001" y1="8.86316" y2="20.9491"><stop offset=".2544" stop-color="#fbe07a"/><stop offset="1" stop-color="#ff40bf"/></linearGradient><linearGradient id="b"><stop offset=".2544" stop-color="#9f00e8"/><stop offset="1" stop-color="#7000a3"/></linearGradient><linearGradient id="c" gradientUnits="userSpaceOnUse" x1="6.74404" x2="15.2075" xlink:href="#b" y1="9.74752" y2="18.211"/><linearGradient id="d" gradientUnits="userSpaceOnUse" x1="4.39814" x2="10.2679" xlink:href="#b" y1="14.355" y2="20.2247"/><linearGradient id="e" gradientUnits="userSpaceOnUse" x1="2.62378" x2="6.33847" xlink:href="#b" y1="18.2066" y2="21.9213"/><radialGradient id="f" cx="0" cy="0" gradientTransform="matrix(-2.89175314 5.09081986 -1.5585484 -.88530676 6.7277 12.9072)" gradientUnits="userSpaceOnUse" r="1"><stop offset="0" stop-color="#fff" stop-opacity=".5"/><stop offset="1" stop-color="#fff" stop-opacity="0"/></radialGradient><radialGradient id="g" cx="0" cy="0" gradientTransform="matrix(-8.17169271 4.40000319 -1.37230995 -2.54865616 10.842 18.1556)" gradientUnits="userSpaceOnUse" r="1"><stop offset="0" stop-color="#440063" stop-opacity=".75"/><stop offset="1" stop-color="#420061" stop-opacity="0"/></radialGradient><linearGradient id="h"><stop offset="0" stop-color="#bd2719"/><stop offset="1" stop-color="#ff4e0d"/></linearGradient><linearGradient id="i" gradientUnits="userSpaceOnUse" x1="12.3842" x2="13.7868" xlink:href="#h" y1="6.89505" y2="6.4471"/><linearGradient id="j" gradientUnits="userSpaceOnUse" x1="13.6883" x2="13.0603" xlink:href="#h" y1="3.41494" y2="1.85474"/><linearGradient id="k"><stop offset="0" stop-color="#ffcb4b"/><stop offset="1" stop-color="#e81ca2"/></linearGradient><linearGradient id="l" gradientUnits="userSpaceOnUse" x1="20.673" x2="18.3339" xlink:href="#k" y1="8.18015" y2="6.68133"/><linearGradient id="m" gradientUnits="userSpaceOnUse" x1="14.6798" x2="9.45348" y1="5.1234" y2="21.6009"><stop offset=".2544" stop-color="#fbe07a"/><stop offset="1" stop-color="#e81ca2"/></linearGradient><linearGradient id="n" gradientUnits="userSpaceOnUse" x1="16.3958" x2="8.37479" y1="8.90559" y2="14.5312"><stop offset="0" stop-color="#fbe07a"/><stop offset="1" stop-color="#fff"/></linearGradient><linearGradient id="o" gradientUnits="userSpaceOnUse" x1="9.93945" x2="12.53" xlink:href="#h" y1="3.18825" y2="3.149"/><linearGradient id="p"><stop offset="0" stop-color="#ff9214"/><stop offset="1" stop-color="#ff4e0d"/></linearGradient><linearGradient id="q" gradientUnits="userSpaceOnUse" x1="16.0375" x2="15.4145" xlink:href="#p" y1="12.1215" y2="13.2393"/><linearGradient id="r"><stop offset="0" stop-color="#80dafe"/><stop offset="1" stop-color="#008ee6"/></linearGradient><linearGradient id="s" gradientUnits="userSpaceOnUse" x1="8.75997" x2="9.70197" xlink:href="#r" y1="3.52942" y2="6.2246"/><linearGradient id="t" gradientUnits="userSpaceOnUse" x1="18.3866" x2="18.1709" xlink:href="#k" y1="8.76647" y2="6.0477"/><linearGradient id="u" gradientUnits="userSpaceOnUse" x1="16.1031" x2="17.6053" xlink:href="#k" y1="9.91257" y2="10.1559"/><linearGradient id="v" gradientUnits="userSpaceOnUse" x1="15.0708" x2="12.8423" y1="4.83107" y2="14.002"><stop offset=".2544" stop-color="#e100ff"/><stop offset="1" stop-color="#7000a3"/></linearGradient><linearGradient id="w" gradientUnits="userSpaceOnUse" x1="10.6877" x2="12.3362" xlink:href="#p" y1="3.3285" y2="6.07601"/><linearGradient id="x" gradientUnits="userSpaceOnUse" x1="12.4527" x2="13.3423" xlink:href="#k" y1="10.8697" y2="13.4864"/><linearGradient id="y"><stop offset="0" stop-color="#fbe07a"/><stop offset="1" stop-color="#e81ca2"/></linearGradient><linearGradient id="z" gradientUnits="userSpaceOnUse" x1="15.449" x2="16.9143" xlink:href="#y" y1="1.27981" y2="3.68716"/><linearGradient id="A" gradientUnits="userSpaceOnUse" x1="13.9286" x2="14.2949" xlink:href="#r" y1="5.72182" y2="7.10866"/><linearGradient id="B" gradientUnits="userSpaceOnUse" x1="15.1943" x2="15.4179" xlink:href="#r" y1="9.69807" y2="10.3378"/><linearGradient id="C" gradientUnits="userSpaceOnUse" x1="21.5451" x2="21.1264" xlink:href="#k" y1="9.02475" y2="10.3593"/><linearGradient id="D" gradientUnits="userSpaceOnUse" x1="19.8147" x2="19.9455" xlink:href="#k" y1="13.0176" y2="15.8698"/><linearGradient id="E" gradientUnits="userSpaceOnUse" x1="18.7532" x2="18.9767" xlink:href="#b" y1="11.0542" y2="11.6939"/><linearGradient id="F" gradientUnits="userSpaceOnUse" x1="20.6471" x2="19.7836" xlink:href="#r" y1="4.35101" y2="5.84252"/><linearGradient id="G" gradientUnits="userSpaceOnUse" x1="17.5032" x2="17.791" xlink:href="#p" y1="5.56494" y2="7.16112"/><linearGradient id="H" gradientUnits="userSpaceOnUse" x1="13.1785" x2="21.5213" xlink:href="#r" y1="13.636" y2="13.8074"/><linearGradient id="I" gradientUnits="userSpaceOnUse" x1="8.5698" x2="10.5698" xlink:href="#y" y1="12.7079" y2="7.73649"/><path d="m4.25512 22.2516 12.89138-5.9772-9.21138-9.21141-5.97714 12.88571c-.08572.2057-.41143 1.0343.47428 1.8229.96.8514 1.61714.5657 1.82286.48z" fill="url(#a)"/><path d="m6.64365 9.8457-.96 2.0857c-.30857.7486 5.16575 6.2743 8.25715 5.8286l3.2057-1.4857c-3.8 1.7543-10.97142-5.4115-10.50285-6.4286z" fill="url(#c)"/><path d="m4.70078 14.0513-.22285.4743-.75429 1.6228c-.00571.64 3.29143 3.9314 5.35429 3.8629l2.61717-1.2115c-2.83432.4915-7.32003-4.0571-6.99432-4.7485z" fill="url(#d)"/><path d="m2.02075 19.8232c.27429.5486 1.61715 1.8857 2.73143 2.2l2.76572-1.28.01714-.0114c-1.70286.7828-4.58286-2.12-4.63429-2.7943z" fill="url(#e)"/><path d="m4.25512 22.2516 12.89138-5.9772-9.21138-9.21141-5.97714 12.88571c-.08572.2057-.41143 1.0343.47428 1.8229.96.8514 1.61714.5657 1.82286.48z" fill="url(#f)" opacity=".75"/><path d="m4.25512 22.2516 12.89138-5.9772-9.21138-9.21141-5.97714 12.88571c-.08572.2057-.41143 1.0343.47428 1.8229.96.8514 1.61714.5657 1.82286.48z" fill="url(#g)" opacity=".75"/><path d="m12.3409 7.1085c-.1543.31428-.4572.36-.68.29143l.3657-.72572s.4114.09143.4229-.17714l.0171.37714z" fill="url(#i)"/><path d="m13.3638 3.10865s.2628-.11999.4285-.46285c.1658-.34286-.6514-.98857-.6514-.98857l-.3828.66857s.6457.42285.4457.56571c-.2057.14286.16.21714.16.21714z" fill="url(#j)"/><path d="m20.0494 8.60592c.12-1.05143-.5886-1.40001-.8457-1.37143 0 0-.0458-.34286.4114-.45143.3028-.06857 1.0743.61714.8743 1.39428z" fill="url(#l)"/><path d="m17.2551 16.1945c-.64.64-3.2229-.9143-5.7772-3.4628-2.54856-2.5486-4.10284-5.13719-3.46284-5.77719s3.22284.91429 5.77714 3.46289c2.5486 2.5543 4.0971 5.1371 3.4629 5.7771z" fill="url(#m)"/><path d="m17.038 15.7714c-.4857.4857-2.8057-1.0457-5.1771-3.4228-2.37144-2.37718-3.90858-4.69147-3.42287-5.17718.48572-.48571 2.80567 1.04571 5.17717 3.42288 2.3714 2.3771 3.9085 4.6914 3.4228 5.1771z" fill="url(#n)"/><path d="m13.7866 2.646s-.2971.63428-.3371.70285c-.1486.25143-.5658.33715-1.3143.23429-.7486-.10286-.9657-.06286-1-.05714-.0343.01143-.4743-.34286-.4743-.34286l.04-.36s.1028-.13714.4457-.09143c.6114.09143 2.4114.39429 2.64-.08571z" fill="url(#o)"/><path d="m15.2723 13.2571c.6-.6857 1.16-.1485 1.5142-.64l-.6057-.6171c-.3543.4857-.8685.0286-1.5028.6971z" fill="url(#q)"/><path d="m8.76367 4.93729c.82857.49143.09143 1.16572.56 1.54858l.64572-.57715c-.46857-.38285.20571-1.04571-.62286-1.53714z" fill="url(#s)"/><path d="m17.5352 7.47989c.0229-.00572.0343-.14286.3714-.38286.3372-.24 1.0972.13143 1.1943.18857.1029.05715.0172 1 .0172 1s-.9486-1.01143-1.4229-.77714c-.4743.22857-.16-.02857-.16-.02857z" fill="url(#t)"/><path d="m17.6608 9.82865s-.0343.37145-.2057.54285c-.3086.3029-.8-.1543-1.4229.0114 0 0 .2857-.72567.3143-.78282 0 0 .2514-.15428.5086-.00571.2628.14285.4914.18857.6514.10286.16-.08572.1543.13142.1543.13142z" fill="url(#u)"/><path d="m19.335 8.19416s-.6115.28-.6915.32-.2628-1.38286.1772-1.52571c.4457-.14286.7486-.19429.7943-.2.0457-.01143-.7657.07428-.28 1.40571z" fill="#ffbf00"/><path d="m17.455 10.3656c.2515-.2629.5943-.65143.5772-.76001-.08-.69714-.6457-2.23428-.1257-2.51428 0 0-.4858.34286-.6343.44571-.1486.10286-.2572.37715-.2457.82857.0285.78858.6571 1.76571.4285 2.00001z" fill="#ffbf00"/><path d="m15.718 4.72559c-.4171 2.93142-3.3257 5.73141-3.3257 5.73141l.3943.6s3.1657-3.29713 3.5714-6.23999z" fill="url(#v)"/><path d="m10.3522 3.5029c-.0686.12571.1314.33714.6114.92.48.58285 1.7258 2.12571 1.3715 2.68571l.3828-.78857s.0057-.62857-.3714-1.24c-.5943-.96-1.7314-1.99428-1.6457-2.25143z" fill="url(#w)"/><path d="m12.9008 12.4227c.1294 0 .2343-.1049.2343-.2343s-.1049-.2343-.2343-.2343-.2343.1049-.2343.2343.1049.2343.2343.2343z" fill="url(#x)"/><path d="m16.1637 2.68586c.1294 0 .2343-.1049.2343-.23429s-.1049-.23428-.2343-.23428-.2343.10489-.2343.23428.1049.23429.2343.23429z" fill="url(#z)"/><path d="m13.9635 6.08576c.1294 0 .2343-.1049.2343-.23429s-.1049-.23428-.2343-.23428-.2343.10489-.2343.23428.1049.23429.2343.23429z" fill="url(#A)"/><path d="m15.3522 10.3773c.1294 0 .2343-.1049.2343-.2343s-.1049-.23431-.2343-.23431-.2343.10491-.2343.23431.1049.2343.2343.2343z" fill="url(#B)"/><path d="m21.3752 9.80597c.1293 0 .2342-.10489.2342-.23428s-.1049-.23429-.2342-.23429c-.1294 0-.2343.1049-.2343.23429s.1049.23428.2343.23428z" fill="url(#C)"/><path d="m19.8837 14.7489c.1294 0 .2343-.1049.2343-.2343s-.1049-.2343-.2343-.2343-.2343.1049-.2343.2343.1049.2343.2343.2343z" fill="url(#D)"/><path d="m18.9066 11.7313c.1294 0 .2343-.1049.2343-.2343s-.1049-.2343-.2343-.2343c-.1293 0-.2342.1049-.2342.2343s.1049.2343.2342.2343z" fill="url(#E)"/><path d="m20.1923 5.36603c.1294 0 .2343-.10489.2343-.23429 0-.12939-.1049-.23428-.2343-.23428s-.2343.10489-.2343.23428c0 .1294.1049.23429.2343.23429z" fill="url(#F)"/><path d="m17.5636 6.13166c.1294 0 .2343-.1049.2343-.23429s-.1049-.23428-.2343-.23428-.2343.10489-.2343.23428.1049.23429.2343.23429z" fill="url(#G)"/><path d="m15.5579 15.3887c2.3885-1.96 6.4342-2.3657 6.4342-2.3657l.1315-.9029s-4.7886.5714-7.3257 2.7714c.2742.1886.5257.3543.76.4972z" fill="url(#H)"/><path d="m9.56372 9.7428c.16.21715.33714.4343.52568.6629.5086-1.12004.4-2.00004.4-2.00004l-.62282-.38857c.06285.69143-.14857 1.35429-.30286 1.72571z" fill="url(#I)"/></svg>