<svg fill="none" height="24" viewBox="0 0 24 24" width="24" xmlns="http://www.w3.org/2000/svg" xmlns:xlink="http://www.w3.org/1999/xlink"><linearGradient id="a"><stop offset="0" stop-color="#f00"/><stop offset=".2317" stop-color="#ff1500"/><stop offset=".7367" stop-color="#ff3d00"/><stop offset=".9987" stop-color="#ff4c00"/></linearGradient><linearGradient id="b" gradientUnits="userSpaceOnUse" x1="10.2589" x2="1.15966" xlink:href="#a" y1="12.687" y2="24.6995"/><linearGradient id="c" gradientUnits="userSpaceOnUse" x1="8.51118" x2="-.47839" xlink:href="#a" y1="11.5569" y2="23.4246"/><linearGradient id="d" gradientUnits="userSpaceOnUse" x1="11.0782" x2="1.85678" xlink:href="#a" y1="13.0501" y2="25.2237"/><linearGradient id="e" gradientUnits="userSpaceOnUse" x1="8.45606" x2="2.59621" y1="14.5703" y2="26.7449"><stop offset="0" stop-color="#ff8000"/><stop offset=".6388" stop-color="#ff5b00"/><stop offset=".9987" stop-color="#ff4c00"/></linearGradient><linearGradient id="f"><stop offset=".00134333" stop-color="#ffed1c" stop-opacity=".6"/><stop offset=".9477" stop-color="#ffed1c" stop-opacity=".026478"/><stop offset=".9914" stop-color="#ffed1c" stop-opacity="0"/></linearGradient><radialGradient id="g" cx="0" cy="0" gradientTransform="matrix(-3.34182907 -3.34182907 4.24359528 -4.24359528 .087197 20.9423)" gradientUnits="userSpaceOnUse" r="1" xlink:href="#f"/><linearGradient id="h" gradientUnits="userSpaceOnUse" x1="3.70411" x2="8.99203" y1="21.8225" y2="14.2401"><stop offset="0" stop-color="#ff8000"/><stop offset=".022669" stop-color="#fe7f02" stop-opacity=".9773"/><stop offset=".6663" stop-color="#ed582a" stop-opacity=".3337"/><stop offset="1" stop-color="#e74939" stop-opacity="0"/></linearGradient><linearGradient id="i" gradientUnits="userSpaceOnUse" x1="9.7793" x2="4.99737" y1="13.9798" y2="18.2642"><stop offset="0" stop-color="#ffbc47"/><stop offset=".1869" stop-color="#ffb137" stop-opacity=".8131"/><stop offset=".7223" stop-color="#ff940f" stop-opacity=".2777"/><stop offset="1" stop-color="#ff8900" stop-opacity="0"/></linearGradient><radialGradient id="j" cx="0" cy="0" gradientTransform="matrix(-2.58509047 -2.58509047 2.66459048 -2.66459048 8.56496 15.249)" gradientUnits="userSpaceOnUse" r="1"><stop offset=".00134333" stop-color="#ffbc47"/><stop offset=".2941" stop-color="#ffbf4b" stop-opacity=".7068"/><stop offset=".5624" stop-color="#fec656" stop-opacity=".4382"/><stop offset=".8201" stop-color="#fcd368" stop-opacity=".1801"/><stop offset="1" stop-color="#fbe07a" stop-opacity="0"/></radialGradient><linearGradient id="k"><stop offset=".00134333" stop-color="#fff"/><stop offset="1" stop-color="#fff" stop-opacity="0"/></linearGradient><radialGradient id="l" cx="0" cy="0" gradientTransform="matrix(-2.50543489 -2.50543489 2.58248124 -2.58248124 8.43003 15.384)" gradientUnits="userSpaceOnUse" r="1" xlink:href="#k"/><radialGradient id="m" cx="0" cy="0" gradientTransform="matrix(-3.0777459 -3.0777459 4.5509746 -4.5509746 10.1423 15.869)" gradientUnits="userSpaceOnUse" r="1" xlink:href="#f"/><radialGradient id="n" cx="0" cy="0" gradientTransform="matrix(1.28300058 -1.18505122 .75809217 .82075161 8.48378 15.3551)" gradientUnits="userSpaceOnUse" r="1" xlink:href="#k"/><linearGradient id="o"><stop offset=".00134333" stop-color="#ffed1c"/><stop offset=".1997" stop-color="#ffee2b" stop-opacity=".8013"/><stop offset=".5839" stop-color="#fff254" stop-opacity=".4167"/><stop offset="1" stop-color="#fff686" stop-opacity="0"/></linearGradient><radialGradient id="p" cx="0" cy="0" gradientTransform="matrix(-1.10411188 -1.10411188 1.40204425 -1.40204425 2.54239 20.1962)" gradientUnits="userSpaceOnUse" r="1" xlink:href="#o"/><radialGradient id="q" cx="0" cy="0" gradientTransform="matrix(-1.44096347 .45162582 -.0913806 -.29156017 5.06149 21.3239)" gradientUnits="userSpaceOnUse" r="1" xlink:href="#f"/><radialGradient id="r" cx="0" cy="0" gradientTransform="matrix(1.08744929 -.94593854 .30054239 .345503 3.99226 22.0321)" gradientUnits="userSpaceOnUse" r="1" xlink:href="#o"/><radialGradient id="s" cx="0" cy="0" gradientTransform="matrix(-3.44515859 -3.44515859 4.37479894 -4.37479894 2.60771 20.6213)" gradientUnits="userSpaceOnUse" r="1"><stop offset=".00134333" stop-color="#ff4c00"/><stop offset=".135" stop-color="#ff5b0c" stop-opacity=".8661"/><stop offset=".3941" stop-color="#ff842c" stop-opacity=".6067"/><stop offset=".7491" stop-color="#ffc45f" stop-opacity=".2512"/><stop offset="1" stop-color="#fff686" stop-opacity="0"/></radialGradient><radialGradient id="t" cx="0" cy="0" gradientTransform="matrix(-1.8286347 -1.8286347 2.32207503 -2.32207503 4.58504 15.5101)" gradientUnits="userSpaceOnUse" r="1" xlink:href="#o"/><radialGradient id="u" cx="0" cy="0" gradientTransform="matrix(-3.82389912 -3.82389912 4.85574469 -4.85574469 8.4275 15.6293)" gradientUnits="userSpaceOnUse" r="1" xlink:href="#o"/><linearGradient id="v"><stop offset="0" stop-color="#bd2719"/><stop offset=".2151" stop-color="#d41a10"/><stop offset=".5049" stop-color="#ec0c07"/><stop offset=".774" stop-color="#fa0302"/><stop offset="1" stop-color="#f00"/></linearGradient><linearGradient id="w" gradientUnits="userSpaceOnUse" x1="9.80373" x2="15.664" xlink:href="#v" y1="19.2642" y2="12.9443"/><linearGradient id="x"><stop offset="0" stop-color="#fc8d41"/><stop offset=".0900324" stop-color="#fc7837"/><stop offset=".294" stop-color="#fd4d24"/><stop offset=".4922" stop-color="#fe2c14"/><stop offset=".6802" stop-color="#ff1409"/><stop offset=".854" stop-color="#ff0502"/><stop offset="1" stop-color="#f00"/></linearGradient><linearGradient id="y" gradientUnits="userSpaceOnUse" x1="13.2109" x2="11.3724" xlink:href="#x" y1="16.3029" y2="18.1086"/><radialGradient id="z" cx="0" cy="0" gradientTransform="matrix(5.60623955 5.60623955 -5.60623955 5.60623955 8.95846 18.4661)" gradientUnits="userSpaceOnUse" r="1" xlink:href="#o"/><linearGradient id="A" gradientUnits="userSpaceOnUse" x1="13.348" x2="22.4311" xlink:href="#v" y1="14.3002" y2="3.77241"/><linearGradient id="B" gradientUnits="userSpaceOnUse" x1="4.16584" x2="9.70004" xlink:href="#v" y1="11.9278" y2="9.21178"/><linearGradient id="C" gradientUnits="userSpaceOnUse" x1="7.32509" x2="5.58505" xlink:href="#x" y1="10.3243" y2="12.3926"/><radialGradient id="D" cx="0" cy="0" gradientTransform="matrix(6.03006521 6.03006521 -6.03006521 6.03006521 8.17058 15.3141)" gradientUnits="userSpaceOnUse" r="1" xlink:href="#o"/><linearGradient id="E" gradientUnits="userSpaceOnUse" x1="11.8189" x2="2.89342" xlink:href="#v" y1="9.17714" y2="9.59452"/><linearGradient id="F"><stop offset="0" stop-color="#bbcacc"/><stop offset=".3717" stop-color="#fff"/><stop offset="1" stop-color="#99afb3"/></linearGradient><linearGradient id="G" gradientUnits="userSpaceOnUse" x1="15.0481" x2="18.64" xlink:href="#F" y1="5.35093" y2="8.94283"/><linearGradient id="H"><stop offset="0" stop-color="#008ee6"/><stop offset=".688" stop-color="#80dafe"/><stop offset=".7325" stop-color="#76d5fb"/><stop offset=".8071" stop-color="#5cc8f3"/><stop offset=".9026" stop-color="#32b2e6"/><stop offset="1" stop-color="#0099d6"/></linearGradient><linearGradient id="I" gradientUnits="userSpaceOnUse" x1="21.1365" x2="19.1811" xlink:href="#H" y1="5.10762" y2="2.56991"/><linearGradient id="J" gradientUnits="userSpaceOnUse" x1="14.2566" x2="10.1747" xlink:href="#H" y1="13.1281" y2="9.06808"/><linearGradient id="K"><stop offset="0" stop-opacity=".75"/><stop offset="1" stop-opacity="0"/></linearGradient><radialGradient id="L" cx="0" cy="0" gradientTransform="matrix(2.7463886 2.7463886 -5.02668776 5.02668776 11.4855 14.4744)" gradientUnits="userSpaceOnUse" r="1" xlink:href="#K"/><radialGradient id="M" cx="0" cy="0" gradientTransform="matrix(2.7463886 2.7463886 -5.02668776 5.02668776 16.0118 13.5594)" gradientUnits="userSpaceOnUse" r="1" xlink:href="#K"/><linearGradient id="N" gradientUnits="userSpaceOnUse" x1="8.9706" x2="11.5309" y1="12.0284" y2="15.3902"><stop offset="0"/><stop offset=".1962" stop-color="#4d4d4c"/><stop offset=".7655"/></linearGradient><linearGradient id="O" gradientUnits="userSpaceOnUse" x1="8.9706" x2="11.5309" y1="12.0284" y2="15.3902"><stop offset="0" stop-opacity="0"/><stop offset=".1975" stop-color="#cfdcde" stop-opacity=".5"/><stop offset=".7655" stop-opacity="0"/></linearGradient><linearGradient id="P" gradientUnits="userSpaceOnUse" x1="14.3333" x2="20.2046" xlink:href="#F" y1="4.04492" y2="5.38551"/><linearGradient id="Q"><stop offset="0" stop-color="#440063" stop-opacity=".75"/><stop offset="1" stop-color="#420061" stop-opacity="0"/></linearGradient><radialGradient id="R" cx="0" cy="0" gradientTransform="matrix(1.79550616 1.74813991 -5.6610292 5.81441606 16.076 11.4008)" gradientUnits="userSpaceOnUse" r="1" xlink:href="#Q"/><linearGradient id="S" gradientUnits="userSpaceOnUse" x1="8.66073" x2="15.4075" xlink:href="#v" y1="15.8565" y2="11.5064"/><linearGradient id="T" gradientUnits="userSpaceOnUse" x1="7.56475" x2="11.0444" xlink:href="#v" y1="16.0858" y2="13.4365"/><linearGradient id="U" gradientUnits="userSpaceOnUse" x1="10.8746" x2="8.88284" xlink:href="#x" y1="13.8555" y2="15.7159"/><linearGradient id="V" gradientUnits="userSpaceOnUse" x1="10.8094" x2="13.1698" xlink:href="#v" y1="15.1451" y2="8.39036"/><radialGradient id="W" cx="0" cy="0" gradientTransform="matrix(4.64035692 -3.76438318 1.26235646 1.5561074 8.60239 15.2652)" gradientUnits="userSpaceOnUse" r="1" xlink:href="#o"/><linearGradient id="X"><stop offset="0" stop-color="#fff" stop-opacity=".5"/><stop offset="1" stop-color="#fff" stop-opacity="0"/></linearGradient><radialGradient id="Y" cx="0" cy="0" gradientTransform="matrix(1.79550616 1.74813991 -5.6610292 5.81441606 14.3426 7.31489)" gradientUnits="userSpaceOnUse" r="1" xlink:href="#X"/><radialGradient id="Z" cx="0" cy="0" gradientTransform="matrix(.43868066 .42162716 -2.02448587 2.10636998 13.7872 13.0483)" gradientUnits="userSpaceOnUse" r="1" xlink:href="#Q"/><linearGradient id="aa" gradientUnits="userSpaceOnUse" x1="15.3192" x2="17.2033" xlink:href="#v" y1="8.31134" y2="4.25406"/><linearGradient id="ab" gradientUnits="userSpaceOnUse" x1="16.6621" x2="15.6361" xlink:href="#x" y1="4.40303" y2="7.80922"/><radialGradient id="ac" cx="0" cy="0" gradientTransform="matrix(2.34326089 2.34293373 -2.34277111 2.34309824 15.6207 6.12733)" gradientUnits="userSpaceOnUse" r="1"><stop offset="0" stop-color="#512d00"/><stop offset="1"/></radialGradient><radialGradient id="ad" cx="16.2658" cy="5.47137" gradientUnits="userSpaceOnUse" r="2.90715"><stop offset=".4873" stop-color="#f5cbc0" stop-opacity="0"/><stop offset="1" stop-color="#e67e62"/></radialGradient><linearGradient id="ae" gradientUnits="userSpaceOnUse" x1="15.9966" x2="16.1204" y1="5.06274" y2="2.86505"><stop offset="0" stop-color="#bd2719"/><stop offset=".0422031" stop-color="#b42717"/><stop offset=".257" stop-color="#89250f"/><stop offset=".4654" stop-color="#682408"/><stop offset=".6634" stop-color="#502304"/><stop offset=".8464" stop-color="#412201"/><stop offset="1" stop-color="#3c2200"/></linearGradient><radialGradient id="af" cx="12.1646" cy="4.75945" gradientUnits="userSpaceOnUse" r="3.94219" xlink:href="#X"/><path d="m4.55993 16.7373c-1.33714 1.2971.41714 2.6857-2.27429 4.5714 0 0 1.58286.5314 3.01715-1.2743.49143-.6228 1.06285-.88 1.06285-.88.19429.1143.04572.7486-.64571 1.2686 0 0 1.08.0286 1.75429-.6457.67428-.6743 1.13142-1.6457 1.13142-1.6457.46286.8114-.69714 1.84-.69714 1.84s1.09143-.2857 2.3886-1.5829c1.0057-1.0057 1.7257-3.5143.28-4.9543-1.44574-1.44-4.02288-1.1828-5.28574.0857-.55429.5543-1.12 1.4172-1.19429 2.1258 0 0 1.06286-1.1486 1.44-.6629 0 0-1.8 1.0857-2.09143 2.12.00572 0 .90286-.5371 1.11429-.3657z" fill="url(#b)"/><path d="m3.56575 17.7261c-1.4.56-.49714 1.7371-1.10286 2.3428 0 0 .80572-.44.79429-1.3028-.01143-.7029.30857-1.04.30857-1.04z" fill="url(#c)"/><path d="m3.89136 21.8117c.36-.04.96571-1.0857 1.78857-.9143 0 0-.73714 1.0743-1.78857.9143z" fill="url(#d)"/><path d="m8.31995 19.7144c.44-.1657 1.18857-.5314 1.97715-1.3257.8857-.8857 1.6229-3.4.1714-4.8457-1.41712-1.4171-3.90283-1.1314-5.09712.0629-.42857.4285-.88571 1.0743-1.06857 1.6685.25714-.2285.64-.5142.96-.5485.16571-.0172.29714.04.38857.1543l.09143.1142-.16.0972c-.01714.0114-1.41143.8628-1.88571 1.7314.32571-.1657.77142-.3486.95428-.2l.10286.0857-.12.12c-.49714.4857-.52572.9829-.54857 1.56-.04.8286-.08572 1.76-1.49143 2.84.48.0629 1.57143.0343 2.60571-1.2628.51429-.6515 1.10857-.9257 1.13143-.9372l.06857-.0285.05143.0285c.09714.0572.14286.1829.12572.3486-.02286.2286-.17143.5543-.49143.8857.35428-.0457.90857-.1771 1.30285-.5714.64572-.6457 1.09143-1.5829 1.09715-1.5943l.12571-.2686.12.2115c.30857.5485-.03429 1.2171-.41143 1.6742z" fill="url(#e)" opacity=".5"/><path d="m2.46289 20.0689c.39429-.32.8-.9485.79429-1.3028-.00572-.3257.08571-.7829.30857-1.04-.98286.4171-.84572 1.0743-.72 1.4.05714.1428-.01715.5657-.38286.9428z" fill="url(#g)"/><path d="m3.2229 21.0346c1.86286-.6114 2.36-2.7257 3.55429-3.0914 1.2-.3657.89714.7772.43428 1.2972 0 0 1.58286-1.5886 1.58857-2.8286.01143-1.24 1.67426.6971 1.16 1.7028 0 0 2.54286-2.5428.50856-4.5714-2.03427-2.0286-4.73713-.0057-4.73713-.0057s1.54286-.0629 1.40572 1.0571c0 0-1.18858.4515-2.12572 1.2 0 0 .45715.0515.77143.52 0 0-1.4.9658-1.34286 1.7943.08 1.0686-.61714 2.7315-1.21714 2.9257z" fill="url(#h)"/><path d="m4.52563 19.4287c.86858-.2172 1.63429-2.2515 2.85715-2.1372.67428.0629.52.6457.52.6457s.46857-.6685.57714-1.5657c.10857-.8971 1.78288-.5943 1.70858 1.0972 0 0 1.84-2.3943-.39429-3.92-2.46286-1.68-4.26857.4285-4.26857.4285s1.68571-.56 1.94857.7772c0 0-1.39429.3885-1.90857.9028 0 0 .59428.0857.73714.72 0 0-1.37143 1.0057-1.33143 1.4057.09714.9543-.44572 1.6458-.44572 1.6458z" fill="url(#i)"/><path d="m4.55993 16.7373c-1.33714 1.2971.41714 2.6857-2.27429 4.5714 0 0 1.58286.5314 3.01715-1.2743.49143-.6228 1.06285-.88 1.06285-.88.19429.1143.04572.7486-.64571 1.2686 0 0 1.08.0286 1.75429-.6457.67428-.6743 1.13142-1.6457 1.13142-1.6457.46286.8114-.69714 1.84-.69714 1.84s1.09143-.2857 2.3886-1.5829c1.0057-1.0057 1.7257-3.5143.28-4.9543-1.44574-1.44-4.02288-1.1828-5.28574.0857-.55429.5543-1.12 1.4172-1.19429 2.1258 0 0 1.06286-1.1486 1.44-.6629 0 0-1.8 1.0857-2.09143 2.12.00572 0 .90286-.5371 1.11429-.3657z" fill="url(#j)" opacity=".5"/><path d="m4.55993 16.7373c-1.33714 1.2971.41714 2.6857-2.27429 4.5714 0 0 1.58286.5314 3.01715-1.2743.49143-.6228 1.06285-.88 1.06285-.88.19429.1143.04572.7486-.64571 1.2686 0 0 1.08.0286 1.75429-.6457.67428-.6743 1.13142-1.6457 1.13142-1.6457.46286.8114-.69714 1.84-.69714 1.84s1.09143-.2857 2.3886-1.5829c1.0057-1.0057 1.7257-3.5143.28-4.9543-1.44574-1.44-4.02288-1.1828-5.28574.0857-.55429.5543-1.12 1.4172-1.19429 2.1258 0 0 1.06286-1.1486 1.44-.6629 0 0-1.8 1.0857-2.09143 2.12.00572 0 .90286-.5371 1.11429-.3657z" fill="url(#l)" opacity=".5"/><path d="m9.62281 18.8174c1.30289-1.3886 2.03999-3.8686.67999-5.2286-1.35999-1.36-3.86285-.2171-4.97142.8057 0 0 .88571-.3714 1.58286.0743.69714.4457-1.29715 1.2172-1.71429 2.44 0 0 1.77715-1.0686 2.33715-.6171.56.4514-.00572 1.8743-.54286 2.4114 0 0 1.27428-.6514 1.96-1.4914 1.04571-1.2857.66857 1.6057.66857 1.6057z" fill="url(#m)"/><path d="m4.55993 16.7373c-1.33714 1.2971.41714 2.6857-2.27429 4.5714 0 0 1.58286.5314 3.01715-1.2743.49143-.6228 1.06285-.88 1.06285-.88.19429.1143.04572.7486-.64571 1.2686 0 0 1.08.0286 1.75429-.6457.67428-.6743 1.13142-1.6457 1.13142-1.6457.46286.8114-.69714 1.84-.69714 1.84s1.09143-.2857 2.3886-1.5829c1.0057-1.0057 1.7257-3.5143.28-4.9543-1.44574-1.44-4.02288-1.1828-5.28574.0857-.55429.5543-1.12 1.4172-1.19429 2.1258 0 0 1.06286-1.1486 1.44-.6629 0 0-1.8 1.0857-2.09143 2.12.00572 0 .90286-.5371 1.11429-.3657z" fill="url(#n)" opacity=".5"/><path d="m3.56575 17.7261c-1.4.56-.49714 1.7371-1.10286 2.3428 0 0 .80572-.44.79429-1.3028-.01143-.7029.30857-1.04.30857-1.04z" fill="url(#p)" opacity=".5"/><path d="m3.89136 21.8113c.36-.04.88571-.7772 1.78857-.9143 0 0-.73714 1.0743-1.78857.9143z" fill="url(#q)"/><path d="m3.89136 21.8117c.36-.04.96571-1.0857 1.78857-.9143 0 0-.73714 1.0743-1.78857.9143z" fill="url(#r)" opacity=".5"/><path d="m4.55993 16.7373c-1.33714 1.2971.41714 2.6857-2.27429 4.5714 0 0 1.58286.5314 3.01715-1.2743.49143-.6228 1.06285-.88 1.06285-.88.19429.1143.04572.7486-.64571 1.2686 0 0 1.08.0286 1.75429-.6457.67428-.6743 1.13142-1.6457 1.13142-1.6457.46286.8114-.69714 1.84-.69714 1.84s1.09143-.2857 2.3886-1.5829c1.0057-1.0057 1.7257-3.5143.28-4.9543-1.44574-1.44-4.02288-1.1828-5.28574.0857-.55429.5543-1.12 1.4172-1.19429 2.1258 0 0 1.06286-1.1486 1.44-.6629 0 0-1.8 1.0857-2.09143 2.12.00572 0 .90286-.5371 1.11429-.3657z" fill="url(#s)" opacity=".5"/><path d="m4.55993 16.7373c-1.33714 1.2971.41714 2.6857-2.27429 4.5714 0 0 1.58286.5314 3.01715-1.2743.49143-.6228 1.06285-.88 1.06285-.88.19429.1143.04572.7486-.64571 1.2686 0 0 1.08.0286 1.75429-.6457.67428-.6743 1.13142-1.6457 1.13142-1.6457.46286.8114-.69714 1.84-.69714 1.84s1.09143-.2857 2.3886-1.5829c1.0057-1.0057 1.7257-3.5143.28-4.9543-1.44574-1.44-4.02288-1.1828-5.28574.0857-.55429.5543-1.12 1.4172-1.19429 2.1258 0 0 1.06286-1.1486 1.44-.6629 0 0-1.8 1.0857-2.09143 2.12.00572 0 .90286-.5371 1.11429-.3657z" fill="url(#t)" opacity=".25"/><path d="m4.55993 16.7373c-1.33714 1.2971.41714 2.6857-2.27429 4.5714 0 0 1.58286.5314 3.01715-1.2743.49143-.6228 1.06285-.88 1.06285-.88.19429.1143.04572.7486-.64571 1.2686 0 0 1.08.0286 1.75429-.6457.67428-.6743 1.13142-1.6457 1.13142-1.6457.46286.8114-.69714 1.84-.69714 1.84s1.09143-.2857 2.3886-1.5829c1.0057-1.0057 1.7257-3.5143.28-4.9543-1.44574-1.44-4.02288-1.1828-5.28574.0857-.55429.5543-1.12 1.4172-1.19429 2.1258 0 0 1.06286-1.1486 1.44-.6629 0 0-1.8 1.0857-2.09143 2.12.00572 0 .90286-.5371 1.11429-.3657z" fill="url(#u)" opacity=".75"/><path d="m15.3541 15.4631c-.1315-1.2742.1657-2.6285.84-3.8514l.2114-.3886-3.2972 2.1543-.2742 1.9829-1.2858 1.2343c.2743 1.0743.2858 2.1257.2858 2.1257 2.1885-1.3086 3.52-3.2572 3.52-3.2572z" fill="url(#w)"/><path d="m11.8399 18.7258s-.0057-1.0629-.2857-2.1257l.5429-.52c.1657.3657.4914 1.1886.5714 2.0971-.2629.1829-.5372.3772-.8286.5486z" fill="url(#y)"/><path d="m15.3541 15.4631c-.1315-1.2742.1657-2.6285.84-3.8514l.2114-.3886-3.2972 2.1543-.2742 1.9829-1.2858 1.2343c.2743 1.0743.2858 2.1257.2858 2.1257 2.1885-1.3086 3.52-3.2572 3.52-3.2572z" fill="url(#z)" opacity=".75"/><path d="m15.6741 12.7942c.1372-.4.3086-.8.52-1.1829l.12-.2171c-.0286-.0171-.0571-.0343-.0857-.0514l-3.1143 2.04-.1886 1.3371c.7086-.2914 1.7143-.8857 2.7486-1.9257z" fill="url(#A)"/><path d="m12.097 7.82862c-.0343-.08-.0515-.13715-.08-.21143-1.2286.58285-2.61717.74857-3.95431.49714 0 0-1.97714 1.29714-3.19428 3.59427 0 0 1.13143.1086 2.32.5143l1.21714-1.3086 1.96575-.1143c.44-.98853.9714-2.04567 1.7257-2.97138z" fill="url(#B)"/><path d="m4.86841 11.7028s1.13143.1086 2.32.5143l.52-.56c-.41714-.2171-1.32-.6343-2.32-.8114-.18286.2686-.36.5543-.52.8571z" fill="url(#C)"/><path d="m12.097 7.82862c-.0343-.08-.0515-.13715-.08-.21143-1.2286.58285-2.61717.74857-3.95431.49714 0 0-1.97714 1.29714-3.19428 3.59427 0 0 1.13143.1086 2.32.5143l1.21714-1.3086 1.96575-.1143c.44-.98853.9714-2.04567 1.7257-2.97138z" fill="url(#D)" opacity=".75"/><path d="m12.0171 7.61133c-.48.36571-1.9828 1.81714-2.50856 3.22857l.85716-.0514c.44-.97717 1.1086-2.05717 1.8628-2.98289z" fill="url(#E)"/><path d="m12.5371 7.33182c.5086.82857 1.1829 1.65143 1.9314 2.38286.0343.03428.0743.06857.1086.10285.6343.60567 1.32 1.14287 2.0172 1.57147.0628-.0629.1257-.12.1885-.1829 1.8-1.79999 2.8457-3.15428 3.7429-4.87428-.64-1.24-1.6914-2.29143-2.9314-2.93143-1.72.89714-3.0686 1.93714-4.8743 3.74286-.0629.06286-.1257.12571-.1829.18857z" fill="url(#G)"/><path d="m20.5198 6.33157c1.2171-2.33714 1.0629-3.59429.8629-3.79429s-1.4515-.35428-3.7943.86286c1.24.64 2.2914 1.69143 2.9314 2.93143z" fill="url(#I)"/><path d="m10.4742 13.4515c.6458.6458 1.24 1.12 1.4 1.12 1.4515-.6342 3.1829-1.6971 4.7201-3.1828-.6915-.4286-1.3829-.9657-2.0172-1.57144-.0343-.03429-.0743-.06857-.1086-.10286-.7485-.73143-1.4228-1.55429-1.9314-2.38286-1.4857 1.53715-2.54857 3.27996-3.18285 4.73146.02286.1771.48571.76 1.11995 1.3885z" fill="url(#J)"/><path d="m10.4742 13.4515c.6458.6458 1.24 1.12 1.4 1.12 1.4515-.6342 3.1829-1.6971 4.7201-3.1828-.6915-.4286-1.3829-.9657-2.0172-1.57144-.0343-.03429-.0743-.06857-.1086-.10286-.7485-.73143-1.4228-1.55429-1.9314-2.38286-1.4857 1.53715-2.54857 3.27996-3.18285 4.73146.02286.1771.48571.76 1.11995 1.3885z" fill="url(#L)" opacity=".75"/><path d="m14.5771 9.81726c-.0343-.03429-.0743-.06857-.1086-.10286-.7485-.73143-1.4228-1.55429-1.9314-2.38286-.04.04-.0743.08-.1086.12 1.04 1.96572 4.2172 3.83996 1.7943 4.82856-1.5885.6514-2.3028 1.4229-2.6857 2.1086.16.12.2857.1828.3429.1828 1.4514-.6342 3.1828-1.6971 4.72-3.1828-.7029-.4286-1.3886-.9657-2.0229-1.57144z" fill="url(#M)" opacity=".5"/><path d="m10.4741 13.4516c-.62855-.6286-1.09141-1.2115-1.11998-1.3886l-.89143.3943c-.10286.1028.48.8628 1.31429 1.6914.82852.8286 1.58852 1.4171 1.69142 1.3143l.4057-.8914c-.16 0-.7543-.4743-1.4-1.12z" fill="url(#N)"/><path d="m10.4741 13.4516c-.62855-.6286-1.09141-1.2115-1.11998-1.3886l-.89143.3943c-.10286.1028.48.8628 1.31429 1.6914.82852.8286 1.58852 1.4171 1.69142 1.3143l.4057-.8914c-.16 0-.7543-.4743-1.4-1.12z" fill="url(#O)"/><path d="m20.2743 6.78896c.0114-.01714.24-.44.2457-.45714-.64-1.24-1.6915-2.29143-2.9315-2.93143-.0171.01143-.0342.01714-.0514.02857 1.2172.69143 2.5943 2.24572 2.7372 3.36z" fill="url(#P)"/><path d="m21.3829 2.53728c-.2-.2-1.4514-.35428-3.7943.86286-1.72.89714-3.0685 1.93715-4.8743 3.74286-.0628.06286-.12.12571-.1828.18857-1.4857 1.53714-2.54858 3.28003-3.18287 4.73143.02857.1771.49143.76 1.11997 1.3886.6457.6457 1.24 1.12 1.4 1.12 1.4515-.6343 3.1829-1.6972 4.72-3.1829.0629-.0628.1258-.12.1886-.1828 1.8-1.80004 2.8457-3.15433 3.7429-4.87433 1.2228-2.33714 1.0685-3.59429.8628-3.79429z" fill="url(#R)" opacity=".75"/><path d="m9.09132 16.3662c1.91998-1.5486 3.42288-3.2743 3.46288-3.32l-.2972-.2972s-1.5657 1.7086-3.43425 3.3486z" fill="url(#S)"/><path d="m12.2513 12.7489c.3486-.6628.9371-1.4971 1.6914-2.3942-.0171-.0172-.0343-.0343-.0571-.0515-.8172.7772-1.6286 1.48-2.3543 2.0972l-.8457 1.24-1.27432 1.2514c-.22286.56-.6 1.2057-.6 1.2057 1.87432-1.64 3.44002-3.3486 3.44002-3.3486z" fill="url(#T)"/><path d="m9.47975 15.5031s.44572-.8057.40572-1.0685l-.46858.4628c-.22285.56-.6 1.2057-.6 1.2057.22858-.2057.44572-.4057.66286-.6z" fill="url(#U)"/><path d="m12.5542 13.0464c.2514-.7657.8171-1.6228 1.5428-2.5543-.0514-.0457-.0971-.0914-.1485-.1371-.7543.8971-1.3429 1.7314-1.6915 2.3943 0 0-1.5657 1.7085-3.43425 3.3485l.27429.2686c1.93716-1.5657 3.45716-3.32 3.45716-3.32z" fill="url(#V)"/><path d="m9.09132 16.3662c1.91998-1.5486 3.42288-3.2743 3.46288-3.32l-.2972-.2972s-1.5657 1.7086-3.43425 3.3486z" fill="url(#S)"/><path d="m12.2513 12.7489c.3486-.6628.9371-1.4971 1.6914-2.3942-.0171-.0172-.0343-.0343-.0571-.0515-.8172.7772-1.6286 1.48-2.3543 2.0972l-.8457 1.24-1.27432 1.2514c-.22286.56-.6 1.2057-.6 1.2057 1.87432-1.64 3.44002-3.3486 3.44002-3.3486z" fill="url(#W)" opacity=".75"/><path d="m21.3829 2.53728c-.2-.2-1.4514-.35428-3.7943.86286-1.72.89714-3.0685 1.93715-4.8743 3.74286-.0628.06286-.12.12571-.1828.18857-1.4857 1.53714-2.54858 3.28003-3.18287 4.73143.02857.1771.49143.76 1.11997 1.3886.6457.6457 1.24 1.12 1.4 1.12 1.4515-.6343 3.1829-1.6972 4.72-3.1829.0629-.0628.1258-.12.1886-.1828 1.8-1.80004 2.8457-3.15433 3.7429-4.87433 1.2228-2.33714 1.0685-3.59429.8628-3.79429z" fill="url(#Y)" opacity=".75"/><g style="opacity:.16;stroke:#000;stroke-width:.5;stroke-miterlimit:10;stroke-linecap:round;stroke-linejoin:round"><path d="m17.2971 10.6916c-.7543-.4457-1.5372-1.05141-2.28-1.78855-.7372-.73714-1.3429-1.52-1.7886-2.28" opacity=".16"/><path d="m19.5371 6.61768c.1714.21142.3257.41714.4743.62285" opacity=".16"/><path d="m18.6112 4.03467c-.0743.05143-.1486.10857-.2228.16571-1.4972 1.12-2.7658 2.24572-4.5658 4.04572-.0628.06286-.1257.12571-.1828.18857-.0572.06286-.12.12-.1772.18286" opacity=".0256"/><path d="m16.5027 10.1719c1.5828-1.61143 2.5943-2.83429 3.5485-4.30858.04-.05714.0743-.11428.1086-.17143" opacity=".16"/></g><path d="m11.4685 14.1657c1.3143-.7657 2.9429-1.9428 4.4686-3.4343z" fill="url(#Z)" opacity=".75"/><path d="m17.3598 7.48588c-.7314.67428-1.8171.68-2.4229.01142-.6057-.66857-.4971-1.76.2343-2.43428.7315-.67429 1.8172-.68 2.4229-.01143s.4971 1.76-.2343 2.43429z" fill="url(#aa)"/><path d="m17.0455 7.10857c-.6.55428-1.4914.56-1.9885.01142-.4972-.54857-.4115-1.44571.1942-2 .6001-.55428 1.4915-.56 1.9886-.01142.4915.54857.4057 1.44571-.1943 2z" fill="url(#ab)"/><path d="m16.9027 6.96018c-.5372.49714-1.3315.49714-1.7715.01142-.44-.49142-.3657-1.28571.1714-1.78285.5372-.49714 1.3315-.49714 1.7715-.01143.44.48572.3657 1.28571-.1714 1.78286z" fill="url(#ac)"/><path d="m16.9027 6.96018c-.5372.49714-1.3315.49714-1.7715.01142-.44-.49142-.3657-1.28571.1714-1.78285.5372-.49714 1.3315-.49714 1.7715-.01143.44.48572.3657 1.28571-.1714 1.78286z" fill="url(#ad)" opacity=".5"/><path d="m16.9712 5.54324c.2.22286.3086.50286.3314.79429.1257-.40572.0572-.84572-.2285-1.16-.44-.49143-1.2343-.48572-1.7715.01143-.0514.05143-.1028.10285-.1485.16.6114-.37143 1.3657-.30286 1.8171.19428z" fill="#000" opacity=".5"/><path d="m17.0741 5.17753c-.44-.49143-1.2343-.48572-1.7715.01143-.5371.49714-.6114 1.29142-.1714 1.78285.0457.05143.0914.08572.0629.06286-.3943-.39429-.2743-1.20571.2343-1.71429.4114-.41142 1.2-.55999 1.6457-.14285z" fill="url(#ae)"/><path d="m17.0742 5.17732c-.4457-.42285-1.24-.26857-1.6457.13715-.4857.48571-.6171 1.25142-.2857 1.66285.0514.02857.0743.08.0457.05715-.0171-.01715-.0343-.03429-.0457-.05715-.0057 0-.0114-.00571-.0172-.00571.44.49143 1.2343.48571 1.7715-.01143.5428-.49714.6228-1.29143.1771-1.78286z" fill="url(#af)" opacity=".5"/><g stroke="#008ee6" stroke-linecap="round" stroke-linejoin="round" stroke-miterlimit="10" stroke-width=".75"><path d="m20.5313 6.31439c-.64-1.24-1.68-2.28572-2.92-2.92572"/><path d="m16.5943 11.3887c-.6915-.4286-1.3829-.9657-2.0172-1.57144-.0343-.03429-.0743-.06857-.1086-.10286-.7485-.73143-1.4228-1.55429-1.9314-2.38286"/></g></svg>