<svg width="290" height="290" viewBox="0 0 290 148" fill="none" xmlns="http://www.w3.org/2000/svg">
<rect width="290" height="148" rx="74" fill="#202020"/>
<path d="M87.7013 106.864C85.4613 106.864 83.5413 106.32 81.9413 105.232C80.4053 104.08 79.1253 102.384 78.1013 100.144L64.3733 68.752C63.6053 66.832 63.3493 65.04 63.6053 63.376C63.8613 61.712 64.6613 60.4 66.0053 59.44C67.4133 58.416 69.3333 57.904 71.7653 57.904C73.8133 57.904 75.4453 58.384 76.6613 59.344C77.9413 60.24 79.0933 62.032 80.1173 64.72L89.8133 89.68H86.5493L96.7253 64.624C97.7493 62 98.9013 60.24 100.181 59.344C101.461 58.384 103.221 57.904 105.461 57.904C107.381 57.904 108.917 58.416 110.069 59.44C111.285 60.4 112.021 61.712 112.277 63.376C112.533 65.04 112.213 66.832 111.317 68.752L97.3013 100.24C96.3413 102.48 95.0613 104.144 93.4613 105.232C91.9253 106.32 90.0053 106.864 87.7013 106.864ZM143.314 107.056C137.554 107.056 132.562 106.064 128.338 104.08C124.178 102.032 120.978 99.152 118.738 95.44C116.498 91.728 115.378 87.344 115.378 82.288C115.378 77.424 116.434 73.168 118.546 69.52C120.722 65.808 123.666 62.928 127.378 60.88C131.154 58.768 135.442 57.712 140.242 57.712C143.762 57.712 146.962 58.288 149.842 59.44C152.722 60.528 155.186 62.16 157.234 64.336C159.282 66.448 160.818 69.008 161.842 72.016C162.93 75.024 163.474 78.384 163.474 82.096C163.474 83.376 163.122 84.336 162.418 84.976C161.714 85.552 160.594 85.84 159.058 85.84H129.682V77.776H150.994L149.458 79.024C149.458 76.656 149.138 74.736 148.498 73.264C147.858 71.792 146.898 70.672 145.618 69.904C144.402 69.136 142.866 68.752 141.01 68.752C139.026 68.752 137.298 69.232 135.826 70.192C134.418 71.088 133.33 72.432 132.562 74.224C131.794 76.016 131.41 78.256 131.41 80.944V81.808C131.41 86.352 132.402 89.616 134.386 91.6C136.434 93.52 139.57 94.48 143.794 94.48C145.202 94.48 146.802 94.32 148.594 94C150.45 93.616 152.21 93.104 153.874 92.464C155.538 91.824 156.978 91.728 158.194 92.176C159.41 92.56 160.338 93.264 160.978 94.288C161.682 95.248 162.066 96.368 162.13 97.648C162.194 98.864 161.906 100.08 161.266 101.296C160.626 102.448 159.57 103.344 158.098 103.984C155.858 105.008 153.458 105.776 150.898 106.288C148.402 106.8 145.874 107.056 143.314 107.056ZM179.284 106.864C176.596 106.864 174.516 106.064 173.044 104.464C171.572 102.864 170.836 100.56 170.836 97.552V67.216C170.836 64.208 171.572 61.904 173.044 60.304C174.516 58.704 176.596 57.904 179.284 57.904C182.036 57.904 184.148 58.704 185.62 60.304C187.156 61.904 187.924 64.208 187.924 67.216V97.552C187.924 100.56 187.188 102.864 185.716 104.464C184.244 106.064 182.1 106.864 179.284 106.864ZM179.284 51.088C176.276 51.088 173.94 50.384 172.276 48.976C170.676 47.568 169.876 45.52 169.876 42.832C169.876 40.208 170.676 38.192 172.276 36.784C173.94 35.376 176.276 34.672 179.284 34.672C182.42 34.672 184.788 35.376 186.388 36.784C187.988 38.192 188.788 40.208 188.788 42.832C188.788 45.52 187.988 47.568 186.388 48.976C184.788 50.384 182.42 51.088 179.284 51.088ZM215.788 107.056C209.644 107.056 205.1 105.424 202.156 102.16C199.276 98.832 197.836 93.84 197.836 87.184V46.096C197.836 43.28 198.572 41.136 200.044 39.664C201.516 38.192 203.596 37.456 206.284 37.456C209.036 37.456 211.148 38.192 212.62 39.664C214.156 41.136 214.924 43.28 214.924 46.096V86.608C214.924 88.976 215.372 90.704 216.268 91.792C217.228 92.88 218.444 93.424 219.916 93.424C220.364 93.424 220.812 93.392 221.26 93.328C221.772 93.2 222.316 93.104 222.892 93.04C223.98 93.04 224.78 93.456 225.292 94.288C225.868 95.12 226.156 96.816 226.156 99.376C226.156 101.616 225.708 103.312 224.812 104.464C223.916 105.552 222.54 106.256 220.684 106.576C220.172 106.64 219.436 106.736 218.476 106.864C217.516 106.992 216.62 107.056 215.788 107.056Z" fill="#F0F0F0"/>
</svg>
