<svg width="107.617" height="73.145" viewBox="0 0 107.617 73.145" xmlns="http://www.w3.org/2000/svg"><g id="svgGroup" stroke-linecap="round" fill-rule="nonzero" font-size="9pt" stroke="#000" stroke-width="0.25mm" fill="#000" style="stroke:#000;stroke-width:0.25mm;fill:#000"><path d="M 106.981 58.567 Q 106.782 58.966 106.556 59.407 A 116.087 116.087 0 0 1 106.079 60.327 A 48.871 48.871 0 0 1 104.986 62.298 A 58.183 58.183 0 0 1 104.248 63.526 A 37.44 37.44 0 0 1 102.111 66.617 A 41.023 41.023 0 0 1 101.953 66.821 A 20.582 20.582 0 0 1 99.194 69.751 A 14.157 14.157 0 0 1 96.132 71.797 A 13.31 13.31 0 0 1 96.021 71.851 A 8.213 8.213 0 0 1 92.432 72.656 A 7.919 7.919 0 0 1 89.514 72.131 A 7.323 7.323 0 0 1 87.402 70.85 A 13.575 13.575 0 0 1 85.079 68.231 A 17.71 17.71 0 0 1 83.838 66.113 A 28.449 28.449 0 0 1 82.296 62.35 A 36.264 36.264 0 0 1 81.47 59.448 Q 80.566 55.713 80.078 51.831 A 97.72 97.72 0 0 1 79.467 45.206 A 88.673 88.673 0 0 1 79.419 44.287 A 174.499 174.499 0 0 1 79.302 41.242 Q 79.262 39.85 79.251 38.606 A 99.777 99.777 0 0 1 79.248 37.793 A 135.734 135.734 0 0 1 79.399 31.476 A 150.927 150.927 0 0 1 79.517 29.297 Q 79.785 24.903 80.371 20.703 A 86.399 86.399 0 0 1 81.429 14.652 A 75.251 75.251 0 0 1 81.86 12.744 A 46.79 46.79 0 0 1 82.782 9.423 Q 83.277 7.878 83.845 6.533 A 28.538 28.538 0 0 1 84.009 6.153 A 19.784 19.784 0 0 1 85.07 4.063 Q 85.668 3.049 86.334 2.252 A 10.594 10.594 0 0 1 86.865 1.66 A 5.907 5.907 0 0 1 88.24 0.589 A 4.654 4.654 0 0 1 90.527 0 Q 92.139 0 93.433 0.757 Q 94.643 1.465 95.49 3.005 A 8.881 8.881 0 0 1 95.606 3.223 A 11.324 11.324 0 0 1 96.233 4.714 Q 96.675 6 96.973 7.666 Q 97.344 9.746 97.433 12.533 A 57.237 57.237 0 0 1 97.461 14.356 A 50.876 50.876 0 0 1 96.784 22.5 A 57.914 57.914 0 0 1 96.436 24.439 A 85.296 85.296 0 0 1 93.652 34.912 A 106.787 106.787 0 0 1 89.502 45.435 A 153.76 153.76 0 0 1 84.375 55.664 Q 85.176 59.734 86.335 62.657 A 20.698 20.698 0 0 0 87.647 65.405 A 10.387 10.387 0 0 0 88.792 67.034 Q 89.519 67.866 90.331 68.336 A 4.413 4.413 0 0 0 92.578 68.945 A 5.176 5.176 0 0 0 95.079 68.283 A 7.408 7.408 0 0 0 96.338 67.407 Q 98.145 65.869 99.658 63.77 Q 101.172 61.67 102.319 59.497 Q 103.467 57.324 104.102 56.006 Q 104.346 55.518 104.785 55.249 A 1.836 1.836 0 0 1 105.762 54.981 A 1.906 1.906 0 0 1 106.417 55.089 A 1.655 1.655 0 0 1 107.105 55.567 Q 107.617 56.153 107.617 56.885 A 1.198 1.198 0 0 1 107.598 57.087 Q 107.562 57.296 107.458 57.574 A 4.736 4.736 0 0 1 107.422 57.666 A 60.662 60.662 0 0 1 106.981 58.567 Z M 82.959 38.037 A 121.998 121.998 0 0 0 83.041 42.587 A 108.129 108.129 0 0 0 83.106 44.043 Q 83.252 46.924 83.496 49.561 A 106.366 106.366 0 0 0 86.462 43.34 A 120.375 120.375 0 0 0 87.402 41.138 A 103.429 103.429 0 0 0 90.674 32.105 Q 92.09 27.539 92.944 23.023 A 49.23 49.23 0 0 0 93.698 17.273 A 41.551 41.551 0 0 0 93.799 14.404 Q 93.799 9.972 93.25 7.476 A 9.91 9.91 0 0 0 92.871 6.153 A 7.386 7.386 0 0 0 92.435 5.182 Q 91.819 4.058 90.991 3.765 A 1.815 1.815 0 0 0 90.381 3.662 Q 89.392 3.662 88.47 4.98 A 6.608 6.608 0 0 0 88.403 5.078 A 11.087 11.087 0 0 0 87.721 6.256 Q 87.398 6.894 87.09 7.662 A 25.597 25.597 0 0 0 86.621 8.936 A 38.309 38.309 0 0 0 85.923 11.24 Q 85.492 12.83 85.107 14.697 A 82.5 82.5 0 0 0 84.339 19.039 A 99.273 99.273 0 0 0 83.96 21.826 A 137.207 137.207 0 0 0 83.374 27.731 A 154.776 154.776 0 0 0 83.228 29.785 A 127.769 127.769 0 0 0 82.959 38.037 Z M 18.166 61.059 A 27.882 27.882 0 0 1 17.676 62.183 A 38.829 38.829 0 0 1 16.266 64.948 A 29.016 29.016 0 0 1 14.771 67.334 A 21.949 21.949 0 0 1 13.517 68.966 Q 12.842 69.76 12.162 70.377 A 11.787 11.787 0 0 1 11.67 70.801 Q 10.281 71.929 9.24 72.132 A 2.447 2.447 0 0 1 8.984 72.168 Q 8.068 72.168 7.012 71.507 A 7.938 7.938 0 0 1 6.177 70.899 A 11.013 11.013 0 0 1 4.859 69.596 Q 4.25 68.891 3.666 68.015 A 20.499 20.499 0 0 1 3.247 67.359 A 19.618 19.618 0 0 1 1.899 64.705 A 26.651 26.651 0 0 1 0.928 61.963 A 22.485 22.485 0 0 1 0.091 57.412 A 27.044 27.044 0 0 1 0 55.176 Q 0 51.953 0.562 50.293 Q 1.067 48.799 1.236 48.452 A 0.848 0.848 0 0 1 1.27 48.389 A 1.776 1.776 0 0 1 1.929 47.705 A 1.771 1.771 0 0 1 2.652 47.473 A 2.201 2.201 0 0 1 2.881 47.461 A 1.977 1.977 0 0 1 3.477 47.547 A 1.563 1.563 0 0 1 4.199 48.023 A 2.045 2.045 0 0 1 4.557 48.595 A 1.772 1.772 0 0 1 4.688 49.268 Q 4.688 49.747 4.499 50.085 A 1.283 1.283 0 0 1 4.492 50.098 A 0.539 0.539 0 0 0 4.475 50.14 Q 4.395 50.348 4.053 51.416 A 6.26 6.26 0 0 0 3.855 52.249 Q 3.705 53.114 3.672 54.344 A 27.07 27.07 0 0 0 3.662 55.078 Q 3.662 57.959 4.248 60.401 A 27.024 27.024 0 0 0 4.808 62.406 Q 5.124 63.385 5.492 64.221 A 15.371 15.371 0 0 0 5.664 64.6 Q 6.494 66.358 7.398 67.359 Q 8.029 68.059 8.506 68.269 A 0.948 0.948 0 0 0 8.887 68.36 A 0.639 0.639 0 0 0 9.12 68.308 Q 9.478 68.165 10.034 67.627 A 8.791 8.791 0 0 0 10.616 67.002 Q 10.91 66.656 11.218 66.235 A 18.846 18.846 0 0 0 11.646 65.625 A 24.173 24.173 0 0 0 12.403 64.421 Q 12.895 63.587 13.403 62.598 A 31.784 31.784 0 0 0 14.576 60.031 A 37.58 37.58 0 0 0 15.064 58.765 A 29.567 29.567 0 0 0 16.164 54.946 A 32.909 32.909 0 0 0 16.284 54.37 Q 16.748 52.051 16.748 49.658 A 18.121 18.121 0 0 0 16.724 48.706 A 18.121 18.121 0 0 1 16.699 47.754 A 2.216 2.216 0 0 1 16.81 47.04 A 1.897 1.897 0 0 1 17.212 46.362 A 1.698 1.698 0 0 1 18.396 45.806 A 2.324 2.324 0 0 1 18.555 45.801 A 1.847 1.847 0 0 1 19.702 46.192 A 1.735 1.735 0 0 1 20.33 47.139 A 2.235 2.235 0 0 1 20.361 47.266 A 0.007 0.007 0 0 1 20.362 47.263 Q 20.372 47.263 20.539 47.972 A 121.75 121.75 0 0 1 20.557 48.047 A 12.263 12.263 0 0 0 20.705 48.611 Q 20.897 49.281 21.216 50.171 A 28.328 28.328 0 0 0 21.741 51.52 A 37.965 37.965 0 0 0 22.388 52.979 Q 23.096 54.492 24.097 55.786 A 9.779 9.779 0 0 0 26.416 57.959 A 5.257 5.257 0 0 0 29.126 58.83 A 6.441 6.441 0 0 0 29.443 58.838 A 3.71 3.71 0 0 0 30.26 58.752 A 2.857 2.857 0 0 0 31.055 58.447 A 5.171 5.171 0 0 0 31.677 58.032 A 3.926 3.926 0 0 0 32.178 57.569 Q 32.617 57.08 32.837 56.641 Q 33.015 56.284 33.049 56.185 A 0.129 0.129 0 0 0 33.057 56.153 A 1.722 1.722 0 0 1 33.716 55.298 A 1.816 1.816 0 0 1 34.766 54.981 A 1.75 1.75 0 0 1 36.05 55.508 A 2.109 2.109 0 0 1 36.084 55.542 A 1.967 1.967 0 0 1 36.483 56.136 A 1.78 1.78 0 0 1 36.621 56.836 A 1.686 1.686 0 0 1 36.517 57.413 A 1.983 1.983 0 0 1 36.475 57.52 A 8.032 8.032 0 0 1 36.217 58.06 Q 36.063 58.356 35.869 58.681 A 16.15 16.15 0 0 1 35.62 59.082 A 7.543 7.543 0 0 1 34.698 60.245 A 9.112 9.112 0 0 1 34.18 60.742 A 7.308 7.308 0 0 1 32.683 61.763 A 8.651 8.651 0 0 1 32.105 62.036 A 6.354 6.354 0 0 1 30.246 62.508 A 7.773 7.773 0 0 1 29.443 62.549 A 8.409 8.409 0 0 1 27.041 62.213 A 7.683 7.683 0 0 1 26.27 61.939 Q 24.805 61.328 23.608 60.376 Q 22.412 59.424 21.436 58.228 A 17.663 17.663 0 0 1 20.231 56.571 A 15.26 15.26 0 0 1 19.775 55.811 A 30.774 30.774 0 0 1 18.166 61.059 Z M 38.965 65.82 A 7.594 7.594 0 0 0 41.602 68.091 Q 43.091 68.881 45.206 68.941 A 12.41 12.41 0 0 0 45.557 68.945 A 8.592 8.592 0 0 0 48.898 68.3 A 8.253 8.253 0 0 0 49.902 67.798 A 14.061 14.061 0 0 0 52.955 65.358 A 16.247 16.247 0 0 0 53.467 64.795 A 23.85 23.85 0 0 0 56.107 61.071 A 26.568 26.568 0 0 0 56.348 60.645 Q 57.617 58.35 58.643 56.055 A 2.021 2.021 0 0 1 58.914 55.61 A 1.619 1.619 0 0 1 59.326 55.249 A 1.836 1.836 0 0 1 60.303 54.981 A 1.906 1.906 0 0 1 60.958 55.089 A 1.655 1.655 0 0 1 61.646 55.567 A 2.213 2.213 0 0 1 61.992 56.088 A 1.752 1.752 0 0 1 62.158 56.836 Q 62.158 57.08 62.109 57.251 A 1.835 1.835 0 0 1 62.048 57.428 A 2.5 2.5 0 0 1 61.963 57.617 Q 58.594 65.039 54.614 68.799 A 14.632 14.632 0 0 1 50.653 71.519 A 12.603 12.603 0 0 1 45.606 72.656 Q 42.383 72.656 40.039 71.411 A 11.918 11.918 0 0 1 36.884 69.019 A 11.164 11.164 0 0 1 36.182 68.189 A 13.583 13.583 0 0 1 33.936 63.721 A 17.575 17.575 0 0 1 33.203 58.74 Q 33.203 56.25 33.814 54.151 A 12.521 12.521 0 0 1 34.728 51.847 A 10.485 10.485 0 0 1 35.571 50.488 A 8.683 8.683 0 0 1 37.54 48.529 A 8.071 8.071 0 0 1 38.306 48.047 Q 39.893 47.168 41.797 47.168 A 5.638 5.638 0 0 1 43.916 47.59 A 6.452 6.452 0 0 1 44.019 47.632 A 6.375 6.375 0 0 1 45.996 48.95 A 6.376 6.376 0 0 1 47.235 50.652 A 7.471 7.471 0 0 1 47.412 51.026 A 6.262 6.262 0 0 1 47.874 52.685 A 8.079 8.079 0 0 1 47.949 53.809 A 10.394 10.394 0 0 1 47.435 57.097 A 9.795 9.795 0 0 1 47.266 57.569 Q 46.582 59.326 45.386 60.84 A 15.64 15.64 0 0 1 43.136 63.139 A 17.839 17.839 0 0 1 42.529 63.623 A 20.971 20.971 0 0 1 38.965 65.82 Z M 37.5 62.647 A 11.906 11.906 0 0 0 40.259 61.035 A 11.813 11.813 0 0 0 41.981 59.39 A 10.63 10.63 0 0 0 42.383 58.887 Q 43.262 57.715 43.75 56.421 A 7.349 7.349 0 0 0 44.238 53.809 A 4.683 4.683 0 0 0 44.167 52.962 Q 44.081 52.495 43.891 52.127 A 2.264 2.264 0 0 0 43.506 51.587 A 2.582 2.582 0 0 0 42.805 51.063 A 2.226 2.226 0 0 0 41.797 50.83 A 3.956 3.956 0 0 0 40.647 50.991 A 3.29 3.29 0 0 0 39.551 51.563 A 5.337 5.337 0 0 0 38.31 52.975 A 6.453 6.453 0 0 0 38.037 53.467 A 9.388 9.388 0 0 0 37.359 55.29 A 11.22 11.22 0 0 0 37.183 56.079 A 15.558 15.558 0 0 0 36.914 58.936 A 10.156 10.156 0 0 0 36.991 60.161 A 12.195 12.195 0 0 0 37.085 60.791 A 20.101 20.101 0 0 0 37.383 62.201 A 17.746 17.746 0 0 0 37.5 62.647 Z M 58.691 61.475 Q 58.691 54.444 59.57 47.461 Q 59.668 46.778 60.181 46.265 A 1.725 1.725 0 0 1 61.193 45.774 A 2.399 2.399 0 0 1 61.523 45.752 A 1.54 1.54 0 0 1 62.674 46.237 A 1.932 1.932 0 0 1 62.744 46.314 A 1.914 1.914 0 0 1 63.232 47.608 A 3.592 3.592 0 0 1 63.228 47.759 Q 63.21 48.175 63.11 49.365 Q 63.026 50.372 62.919 51.645 A 4937.162 4937.162 0 0 1 62.817 52.857 Q 62.647 54.883 62.524 57.153 A 89.207 89.207 0 0 0 62.433 59.332 A 68.393 68.393 0 0 0 62.402 61.328 A 21.689 21.689 0 0 0 62.452 62.848 Q 62.508 63.63 62.623 64.294 A 8.927 8.927 0 0 0 62.915 65.503 A 9.227 9.227 0 0 0 63.331 66.573 Q 63.724 67.413 64.233 67.969 A 5.069 5.069 0 0 0 64.904 68.586 Q 65.343 68.919 65.809 69.094 A 3.105 3.105 0 0 0 65.942 69.141 A 6.132 6.132 0 0 0 66.962 69.382 A 5.017 5.017 0 0 0 67.676 69.434 A 4.304 4.304 0 0 0 69.178 69.15 Q 69.73 68.945 70.297 68.593 A 7.868 7.868 0 0 0 70.508 68.457 A 12.258 12.258 0 0 0 71.804 67.453 Q 72.646 66.712 73.511 65.723 Q 75 64.021 76.512 61.655 A 47.112 47.112 0 0 0 76.611 61.499 A 57.077 57.077 0 0 0 78.45 58.373 A 71.218 71.218 0 0 0 79.688 56.006 Q 79.932 55.518 80.371 55.249 A 1.836 1.836 0 0 1 81.348 54.981 A 1.698 1.698 0 0 1 82.102 55.146 A 1.715 1.715 0 0 1 82.642 55.567 A 2.213 2.213 0 0 1 82.988 56.088 A 1.752 1.752 0 0 1 83.154 56.836 Q 83.154 57.316 82.966 57.654 A 1.283 1.283 0 0 1 82.959 57.666 A 120.518 120.518 0 0 1 82.478 58.577 Q 82.044 59.393 81.494 60.401 Q 80.615 62.012 79.492 63.721 A 45.815 45.815 0 0 1 77.026 67.114 A 24.386 24.386 0 0 1 74.452 69.887 A 22.341 22.341 0 0 1 74.17 70.142 A 15.182 15.182 0 0 1 71.842 71.853 A 13.449 13.449 0 0 1 70.996 72.315 A 7.812 7.812 0 0 1 68.796 73.047 A 7.019 7.019 0 0 1 67.627 73.145 A 8.808 8.808 0 0 1 65.572 72.915 A 7.029 7.029 0 0 1 63.77 72.217 Q 62.109 71.289 60.962 69.727 A 10.239 10.239 0 0 1 59.638 67.252 A 12.594 12.594 0 0 1 59.253 66.04 A 17.067 17.067 0 0 1 58.731 62.749 A 20.182 20.182 0 0 1 58.691 61.475 Z M 66.124 34.908 A 4.469 4.469 0 0 1 65.308 36.011 A 4.28 4.28 0 0 1 62.216 37.305 A 5.282 5.282 0 0 1 62.158 37.305 A 4.376 4.376 0 0 1 60.111 36.827 A 4.469 4.469 0 0 1 59.009 36.011 A 4.28 4.28 0 0 1 57.715 32.919 A 5.282 5.282 0 0 1 57.715 32.862 Q 57.715 31.934 58.057 31.128 Q 58.398 30.322 59.009 29.712 Q 59.619 29.102 60.425 28.76 A 4.374 4.374 0 0 1 62.086 28.419 A 4.997 4.997 0 0 1 62.158 28.418 Q 63.086 28.418 63.892 28.76 Q 64.697 29.102 65.308 29.712 Q 65.918 30.322 66.26 31.128 A 4.374 4.374 0 0 1 66.601 32.789 A 4.997 4.997 0 0 1 66.602 32.862 A 4.376 4.376 0 0 1 66.124 34.908 Z M 63.867 32.862 A 1.631 1.631 0 0 0 63.387 31.698 A 2.141 2.141 0 0 0 63.355 31.665 A 1.787 1.787 0 0 0 62.827 31.293 A 1.606 1.606 0 0 0 62.158 31.153 Q 61.475 31.153 60.986 31.665 A 1.68 1.68 0 0 0 60.498 32.862 A 1.596 1.596 0 0 0 60.971 34.018 A 1.96 1.96 0 0 0 60.986 34.033 Q 61.475 34.522 62.158 34.522 A 1.68 1.68 0 0 0 63.355 34.033 A 1.66 1.66 0 0 0 63.739 33.496 A 1.566 1.566 0 0 0 63.867 32.862 Z" vector-effect="non-scaling-stroke"/></g></svg>